<svg width="37" height="23" viewBox="0 0 37 23" fill="none" xmlns="http://www.w3.org/2000/svg">
<path d="M25.7464 5.8036C25.7464 3.34142 23.8205 1.34717 21.4426 1.34717C19.0648 1.34717 17.1388 3.34142 17.1388 5.8036C17.1388 8.26578 19.0648 10.26 21.4426 10.26C23.8205 10.26 25.7464 8.26578 25.7464 5.8036ZM27.8984 8.03181V10.26H31.1262V13.6024H33.2781V10.26H36.506V8.03181H33.2781V4.68949H31.1262V8.03181H27.8984ZM12.835 16.9447V22.0002H29.0503C29.6026 22.0002 30.0503 21.5524 30.0503 21.0002V16.9447C30.0503 13.9811 24.3154 12.4882 21.4426 12.4882C18.5698 12.4882 12.835 13.9811 12.835 16.9447Z" fill="url(#paint0_linear_134_453)"/>
<path d="M14.7632 5.57781C14.7632 2.78899 12.5772 0.5 9.8421 0.5C7.10705 0.5 4.92105 2.78899 4.92105 5.57781C4.92105 8.36663 7.10705 10.6556 9.8421 10.6556C12.5772 10.6556 14.7632 8.36663 14.7632 5.57781ZM0.5 17.0223V21C0.5 21.8284 1.17157 22.5 2 22.5H17.6842C18.5126 22.5 19.1842 21.8284 19.1842 21V17.0223C19.1842 16.0842 18.7265 15.2953 18.0631 14.6613C17.4037 14.0311 16.5137 13.525 15.5614 13.13C13.6582 12.3405 11.3825 11.9445 9.8421 11.9445C8.30173 11.9445 6.02603 12.3405 4.12283 13.13C3.17046 13.525 2.28055 14.0311 1.62114 14.6613C0.957737 15.2953 0.5 16.0842 0.5 17.0223Z" fill="url(#paint1_linear_134_453)" stroke="white"/>
<defs>
<linearGradient id="paint0_linear_134_453" x1="24.6705" y1="20.07" x2="24.6705" y2="-24.3243" gradientUnits="userSpaceOnUse">
<stop stop-color="#EA2B2E"/>
<stop offset="1" stop-color="#84181A"/>
</linearGradient>
<linearGradient id="paint1_linear_134_453" x1="9.84211" y1="20.0374" x2="9.84211" y2="-25.1028" gradientUnits="userSpaceOnUse">
<stop stop-color="#EA2B2E"/>
<stop offset="1" stop-color="#84181A"/>
</linearGradient>
</defs>
</svg>
