<svg width="31" height="31" viewBox="0 0 31 31" fill="none" xmlns="http://www.w3.org/2000/svg">
<g clip-path="url(#clip0_134_396)">
<path d="M10.3356 10.3332C10.3356 7.4797 12.6497 5.1665 15.5042 5.1665C18.3588 5.1665 20.6729 7.4797 20.6729 10.3332C20.6729 13.1866 18.3588 15.4998 15.5042 15.4998C14.1334 15.4998 12.8188 14.9555 11.8495 13.9866C10.8802 13.0176 10.3356 11.7035 10.3356 10.3332ZM25.6993 23.9603L23.8386 20.2273C23.1812 18.9109 21.8346 18.0803 20.3627 18.0832H10.6457C9.17383 18.0803 7.82728 18.9109 7.16983 20.2273L5.30913 23.9603C5.10759 24.36 5.12752 24.8357 5.3618 25.2172C5.59608 25.5987 6.01129 25.8318 6.45914 25.8332H24.5493C24.9972 25.8318 25.4124 25.5987 25.6467 25.2172C25.8809 24.8357 25.9009 24.36 25.6993 23.9603Z" fill="url(#paint0_linear_134_396)"/>
<circle cx="22.2812" cy="24.2188" r="3.875" fill="white"/>
<path d="M22.7656 21.3125C20.894 21.3125 19.375 22.8315 19.375 24.7031C19.375 26.5748 20.894 28.0938 22.7656 28.0938C24.6373 28.0938 26.1563 26.5748 26.1563 24.7031C26.1563 22.8315 24.6373 21.3125 22.7656 21.3125ZM22.0875 26.3984L20.3922 24.7031L20.8703 24.225L22.0875 25.4389L24.661 22.8654L25.1391 23.3469L22.0875 26.3984Z" fill="url(#paint1_linear_134_396)"/>
</g>
<defs>
<linearGradient id="paint0_linear_134_396" x1="15.5042" y1="23.9017" x2="15.5042" y2="-20.522" gradientUnits="userSpaceOnUse">
<stop stop-color="#EA2B2E"/>
<stop offset="1" stop-color="#84181A"/>
</linearGradient>
<linearGradient id="paint1_linear_134_396" x1="22.7656" y1="27.46" x2="22.7656" y2="12.8835" gradientUnits="userSpaceOnUse">
<stop stop-color="#EA2B2E"/>
<stop offset="1" stop-color="#84181A"/>
</linearGradient>
<clipPath id="clip0_134_396">
<rect width="31" height="31" fill="white"/>
</clipPath>
</defs>
</svg>
