<svg width="32" height="33" viewBox="0 0 32 33" fill="none" xmlns="http://www.w3.org/2000/svg">
<g clip-path="url(#clip0_134_365)">
<path d="M9.33132 9.625C9.33132 6.58743 11.72 4.125 14.6667 4.125C17.6133 4.125 20.002 6.58743 20.002 9.625C20.002 12.6626 17.6133 15.125 14.6667 15.125C13.2516 15.125 11.8946 14.5455 10.894 13.5141C9.89343 12.4826 9.33132 11.0837 9.33132 9.625ZM25.1906 24.1313L23.2699 20.1575C22.5913 18.7562 21.2013 17.8719 19.6819 17.875H9.65144C8.13206 17.8719 6.74207 18.7562 6.06341 20.1575L4.14269 24.1313C3.93465 24.5568 3.95522 25.0631 4.19706 25.4693C4.43889 25.8754 4.8675 26.1236 5.3298 26.125H24.0035C24.4658 26.1236 24.8944 25.8754 25.1363 25.4693C25.3781 25.0631 25.3987 24.5568 25.1906 24.1313Z" fill="url(#paint0_linear_134_365)"/>
<path fill-rule="evenodd" clip-rule="evenodd" d="M22.3056 28.5584C20.3758 28.5582 16.7734 24.6628 16.7734 22.737C16.7734 20.8112 18.3378 19.25 20.2675 19.25C21.0347 19.25 21.7442 19.4968 22.3206 19.9152C22.8915 19.4963 23.5898 19.25 24.3438 19.25C26.2735 19.25 27.8379 20.8632 27.8379 22.8532C27.8379 24.8432 24.2354 28.5582 22.3057 28.5584" fill="white"/>
<path fill-rule="evenodd" clip-rule="evenodd" d="M22.2477 26.8125C20.965 26.8125 18.5703 24.223 18.5703 22.9429C18.5703 21.6628 19.6102 20.625 20.8929 20.625C21.403 20.625 21.8747 20.7891 22.2579 21.0673C22.6374 20.7888 23.1016 20.625 23.603 20.625C24.8857 20.625 25.9255 21.6973 25.9255 23.0202C25.9255 24.343 23.5308 26.8125 22.2481 26.8125C22.2481 26.8125 22.248 26.8123 22.2479 26.812C22.2478 26.8123 22.2477 26.8125 22.2477 26.8125Z" fill="url(#paint1_linear_134_365)"/>
</g>
<defs>
<linearGradient id="paint0_linear_134_365" x1="14.6667" y1="24.0689" x2="14.6667" y2="-23.2208" gradientUnits="userSpaceOnUse">
<stop stop-color="#EA2B2E"/>
<stop offset="1" stop-color="#84181A"/>
</linearGradient>
<linearGradient id="paint1_linear_134_365" x1="22.2479" y1="26.2342" x2="22.2479" y2="12.934" gradientUnits="userSpaceOnUse">
<stop stop-color="#EA2B2E"/>
<stop offset="1" stop-color="#84181A"/>
</linearGradient>
<clipPath id="clip0_134_365">
<rect width="32" height="33" fill="white"/>
</clipPath>
</defs>
</svg>
