<svg width="147" height="138" viewBox="0 0 147 138" fill="none" xmlns="http://www.w3.org/2000/svg">
<path d="M129.876 32.2571L130.613 33.157L131.473 32.1114C131.373 33.984 133.767 37.0519 134.573 38.813C135.521 40.919 136.459 43.0567 137.388 45.226C138.484 47.8846 142.055 53.7399 140.511 56.6612C138.764 59.9832 132.725 58.7705 129.768 58.8153C126.971 58.8614 124.172 58.9044 121.371 58.9442L116.798 59.0167L115.273 59.0329C113.527 59.5081 113.262 59.0982 114.379 57.7884L113.24 55.6285L113.731 56.0045C112.894 55.9695 112.067 55.9294 111.237 55.8966L110.744 57.1277C110.661 56.7272 110.696 56.3111 110.846 55.9305C110.996 55.5498 111.253 55.2211 111.587 54.9847C111.921 54.7484 112.317 54.6146 112.725 54.5998C113.134 54.585 113.538 54.6899 113.888 54.9015C114.414 55.1884 114.842 55.6253 115.118 56.1565C115.393 56.6877 115.504 57.2891 115.437 57.8839C115.423 58.3237 115.292 58.752 115.059 59.1251C114.825 59.4982 114.497 59.8028 114.108 60.0078C113.921 60.094 113.74 60.1898 113.551 60.2833C113.163 60.4894 112.728 60.5882 112.289 60.5692C111.851 60.5502 111.425 60.4143 111.057 60.1755C108.476 58.1773 109.062 54.7597 112.376 54.1296C115.242 53.6011 118.61 54.0911 121.528 54.0665L131.44 54.0063C132.964 54.12 134.494 54.1095 136.016 53.9747C136.94 53.7807 137.034 53.9696 136.302 54.5509C136.046 53.6559 135.789 52.7609 135.533 51.8659C134.751 49.2246 133.9 46.522 133.004 43.8856C131.995 40.9181 130.897 37.9792 129.753 35.0582C129.183 33.7463 128.577 32.759 129.429 31.479C129.562 31.2764 129.757 31.1218 129.984 31.0381C130.212 30.9544 130.46 30.9461 130.693 31.0142C130.961 31.0762 131.205 31.2164 131.393 31.4171C131.582 31.6178 131.706 31.87 131.751 32.1416C131.796 32.3424 131.774 32.5522 131.688 32.7393C131.603 32.9265 131.459 33.0807 131.278 33.1789L131.102 33.2842C130.95 33.3603 130.78 33.3906 130.612 33.3714C130.444 33.3522 130.285 33.2843 130.154 33.1761C130.024 33.0678 129.928 32.924 129.878 32.762C129.828 32.6001 129.827 32.4272 129.874 32.2644L129.876 32.2571Z" fill="black"/>
<path d="M137.82 56.7002C130.619 51.9065 122.335 48.9884 113.719 48.2113C111.392 47.979 111.469 44.3162 113.833 44.5356C123.069 45.3817 131.859 48.8936 139.136 54.6441C140.36 55.5987 139.135 57.6189 137.82 56.7002Z" fill="black"/>
<path d="M102.713 45.8134C98.8119 45.6691 94.9057 45.7966 91.0224 46.1949C87.8162 46.5544 84.4852 47.6271 81.2755 47.3777C79.8472 47.2637 79.1444 45.1668 80.6161 44.4945C83.6189 43.1124 87.4283 43.1554 90.7106 43.0674C94.7466 42.9618 98.785 43.1423 102.796 43.6077C104.147 43.762 104.126 45.7948 102.731 45.755L102.713 45.8134Z" fill="black"/>
<path d="M71.5139 47.7803C63.178 48.9429 55.0644 51.3526 47.4451 54.9283C45.4159 55.852 43.7771 52.8257 45.8121 51.8319C53.7863 48.0325 62.483 45.989 71.3148 45.8392C72.4186 45.8129 72.6224 47.6354 71.5139 47.7803Z" fill="black"/>
<path d="M37.3313 60.8121C35.5552 62.9337 33.3303 64.6445 31.28 66.4894C29.7038 67.9131 26.0512 70.3097 25.9494 72.5255C25.9363 72.7906 25.8633 73.0493 25.7359 73.2821C25.6085 73.515 25.43 73.7159 25.2138 73.8699C24.9976 74.0239 24.7494 74.1269 24.4877 74.1712C24.226 74.2155 23.9577 74.1999 23.7028 74.1257L23.3014 74.0015C22.8721 73.8599 22.4993 73.5846 22.2378 73.2159C21.9763 72.8471 21.8397 72.4043 21.8481 71.9523C21.6638 69.1362 25.0321 67.2193 26.9695 65.7394C29.8186 63.51 32.8902 60.9495 36.2883 59.6337C36.9426 59.3803 37.9609 60.0952 37.3763 60.77L37.3313 60.8121Z" fill="black"/>
<path d="M14.5437 82.5841C12.8744 85.7305 11.2743 88.8342 9.63035 91.9244C8.32329 94.3911 5.50312 97.8451 5.2787 100.535C5.26499 100.825 5.18572 101.109 5.04684 101.364C4.90796 101.619 4.71308 101.84 4.4768 102.009C4.24053 102.178 3.96899 102.292 3.68256 102.341C3.39613 102.391 3.10224 102.375 2.82293 102.294L2.37041 102.154C1.90056 102.011 1.48899 101.721 1.19635 101.327C0.9037 100.933 0.745444 100.455 0.744896 99.9637C0.638262 97.0516 3.61279 94.0292 5.1117 91.7179C7.45069 88.139 9.7979 84.5679 12.1533 81.0048C13.1758 79.4577 15.3754 80.9301 14.555 82.5476L14.5437 82.5841Z" fill="black"/>
</svg>
