<svg width="55" height="55" viewBox="0 0 55 55" fill="none" xmlns="http://www.w3.org/2000/svg">
<path d="M24.0625 28.5141L19.6109 24.0625L17.1875 26.4859L24.0625 33.3609L37.8125 19.6109L35.3891 17.1875L24.0625 28.5141Z" fill="#333333"/>
<path d="M27.5 51.5625L16.885 45.9027C13.8589 44.2927 11.3282 41.8891 9.56472 38.9498C7.8012 36.0105 6.87137 32.6465 6.87501 29.2188V6.875C6.87592 5.9636 7.23838 5.08978 7.88284 4.44533C8.5273 3.80087 9.40111 3.43841 10.3125 3.4375H44.6875C45.5989 3.43841 46.4727 3.80087 47.1172 4.44533C47.7616 5.08978 48.1241 5.9636 48.125 6.875V29.2188C48.1287 32.6465 47.1988 36.0105 45.4353 38.9498C43.6718 41.8891 41.1412 44.2927 38.115 45.9027L27.5 51.5625ZM10.3125 6.875V29.2188C10.3097 32.0234 11.0707 34.7759 12.5138 37.1808C13.957 39.5857 16.0278 41.5521 18.5041 42.8691L27.5 47.6661L36.4959 42.8708C38.9724 41.5537 41.0435 39.587 42.4866 37.1818C43.9298 34.7766 44.6907 32.0237 44.6875 29.2188V6.875H10.3125Z" fill="#333333"/>
</svg>
