<svg width="51" height="51" viewBox="0 0 51 51" fill="none" xmlns="http://www.w3.org/2000/svg">
<path d="M43.2864 45.1562C43.2864 45.5789 43.1185 45.9843 42.8196 46.2832C42.5207 46.5821 42.1153 46.75 41.6926 46.75H9.30762C8.88493 46.75 8.47955 46.5821 8.18067 46.2832C7.88178 45.9843 7.71387 45.5789 7.71387 45.1562C7.71387 36.4438 17.2764 29.6863 25.5001 29.6863C33.7239 29.6863 43.2864 36.4438 43.2864 45.1562ZM36.3376 15.1088C36.3334 17.2513 35.6942 19.3445 34.5008 21.1239C33.3075 22.9034 31.6134 24.2891 29.6327 25.1061C27.6521 25.9231 25.4737 26.1347 23.3728 25.7142C21.272 25.2936 19.3429 24.2598 17.8294 22.7433C16.3158 21.2268 15.2858 19.2957 14.8693 17.194C14.4529 15.0923 14.6687 12.9143 15.4896 10.9353C16.3105 8.95622 17.6996 7.26489 19.4813 6.07498C21.2631 4.88508 23.3576 4.25 25.5001 4.25C28.3764 4.25563 31.1329 5.40216 33.1647 7.43796C35.1965 9.47376 36.3376 12.2325 36.3376 15.1088Z" fill="#333333"/>
</svg>
