<svg width="64" height="64" viewBox="0 0 64 64" fill="none" xmlns="http://www.w3.org/2000/svg">
<path d="M37.3333 21.3334H12.4444C11.9729 21.3334 11.5207 21.1461 11.1873 20.8127C10.8539 20.4793 10.6666 20.0271 10.6666 19.5556V12.4445C10.6666 11.973 10.8539 11.5208 11.1873 11.1874C11.5207 10.854 11.9729 10.6667 12.4444 10.6667H37.3333C37.8048 10.6667 38.257 10.854 38.5904 11.1874C38.9238 11.5208 39.1111 11.973 39.1111 12.4445V19.5556C39.1111 20.0271 38.9238 20.4793 38.5904 20.8127C38.257 21.1461 37.8048 21.3334 37.3333 21.3334ZM14.2222 17.7778H35.5555V14.1156H14.2222V17.7778Z" fill="#333333"/>
<path d="M37.3333 25.0311H12.4444C11.9729 25.0311 11.5207 25.2184 11.1873 25.5518C10.8539 25.8852 10.6666 26.3374 10.6666 26.8089V33.7778C10.6666 34.2493 10.8539 34.7015 11.1873 35.0349C11.5207 35.3683 11.9729 35.5556 12.4444 35.5556H32.64L39.1111 28.9778V26.8089C39.1111 26.3374 38.9238 25.8852 38.5904 25.5518C38.257 25.2184 37.8048 25.0311 37.3333 25.0311ZM35.5555 32H14.2222V28.4445H35.5555V32Z" fill="#333333"/>
<path d="M19.6622 56.0178V55.9111L20.2311 53.44H7.1111V7.1111H42.6667V25.3333L46.2222 21.9733V5.33332C46.2222 4.86182 46.0349 4.40964 45.7015 4.07624C45.3681 3.74284 44.9159 3.55554 44.4444 3.55554H5.33332C4.86182 3.55554 4.40964 3.74284 4.07624 4.07624C3.74284 4.40964 3.55554 4.86182 3.55554 5.33332V55.1111C3.55554 55.5826 3.74284 56.0348 4.07624 56.3682C4.40964 56.7016 4.86182 56.8889 5.33332 56.8889H19.5555C19.5702 56.5963 19.6058 56.3052 19.6622 56.0178Z" fill="#333333"/>
<path d="M39.1112 34.08L37.7245 35.4845C38.0685 35.4135 38.3838 35.2423 38.6306 34.9923C38.8774 34.7424 39.0446 34.4249 39.1112 34.08Z" fill="#333333"/>
<path d="M10.6666 47.8933C10.6666 48.3648 10.8539 48.817 11.1873 49.1504C11.5207 49.4838 11.9729 49.6711 12.4444 49.6711H21.0488L21.5822 47.36L21.8133 46.3822V46.2933H14.2222V42.6666H25.4933L29.0488 39.1111H12.4444C11.9729 39.1111 11.5207 39.2984 11.1873 39.6318C10.8539 39.9652 10.6666 40.4174 10.6666 40.8889V47.8933Z" fill="#333333"/>
<path d="M59.5378 29.6356L53.5467 23.6444C53.2808 23.3778 52.965 23.1663 52.6172 23.022C52.2694 22.8776 51.8966 22.8033 51.52 22.8033C51.1435 22.8033 50.7707 22.8776 50.4229 23.022C50.0751 23.1663 49.7593 23.3778 49.4934 23.6444L25.12 48.16L23.1112 56.7111C23.0359 57.08 23.0343 57.4601 23.1062 57.8297C23.1781 58.1993 23.3222 58.551 23.5303 58.8648C23.7384 59.1785 24.0063 59.4482 24.3188 59.6582C24.6312 59.8683 24.9821 60.0146 25.3512 60.0889C25.5344 60.1073 25.719 60.1073 25.9023 60.0889C26.1201 60.1244 26.3422 60.1244 26.56 60.0889L35.1823 58.1867L59.5378 33.7778C59.8039 33.5134 60.0151 33.199 60.1591 32.8527C60.3032 32.5064 60.3774 32.1351 60.3774 31.76C60.3774 31.3849 60.3032 31.0136 60.1591 30.6673C60.0151 30.321 59.8039 30.0066 59.5378 29.7422V29.6356ZM33.3689 54.9511L26.8623 56.3911L28.4445 49.9378L46.72 31.4667L51.7334 36.48L33.3689 54.9511ZM53.7423 34.4711L48.7289 29.4578L51.5556 26.6667L56.6045 31.7156L53.7423 34.4711Z" fill="#333333"/>
</svg>
