<svg width="56" height="56" viewBox="0 0 56 56" fill="none" xmlns="http://www.w3.org/2000/svg">
<path d="M27.5526 31.0714C25.1168 31.0714 22.7808 32.039 21.0584 33.7614C19.336 35.4838 18.3684 37.8198 18.3684 40.2556C18.3684 42.6914 19.336 45.0275 21.0584 46.7498C22.7808 48.4722 25.1168 49.4398 27.5526 49.4398C29.9884 49.4398 32.3244 48.4722 34.0468 46.7498C35.7692 45.0275 36.7368 42.6914 36.7368 40.2556C36.7368 37.8198 35.7692 35.4838 34.0468 33.7614C32.3244 32.039 29.9884 31.0714 27.5526 31.0714ZM23.6165 40.2556C23.6165 39.2117 24.0312 38.2105 24.7694 37.4724C25.5075 36.7342 26.5087 36.3195 27.5526 36.3195C28.5965 36.3195 29.5977 36.7342 30.3358 37.4724C31.074 38.2105 31.4887 39.2117 31.4887 40.2556C31.4887 41.2995 31.074 42.3007 30.3358 43.0388C29.5977 43.777 28.5965 44.1917 27.5526 44.1917C26.5087 44.1917 25.5075 43.777 24.7694 43.0388C24.0312 42.3007 23.6165 41.2995 23.6165 40.2556Z" fill="#333333"/>
<path d="M42.0531 11.6954L33.7113 0L3.03866 24.5034L1.33827 24.4851V24.5113H0V56H55.1052V24.5113H52.5809L47.5584 9.81922L42.0531 11.6954ZM47.0362 24.5113H20.7222L40.3213 17.8305L44.3151 16.5526L47.0362 24.5113ZM36.868 13.464L16.6365 20.3601L32.659 7.55991L36.868 13.464ZM5.24811 45.9472V34.5588C6.35519 34.1665 7.36076 33.5321 8.19151 32.7018C9.02225 31.8715 9.65723 30.8663 10.0501 29.7594H45.0551C45.4478 30.8667 46.0827 31.8723 46.9134 32.7031C47.7442 33.5338 48.7498 34.1687 49.8571 34.5615V45.9499C48.7498 46.3426 47.7442 46.9775 46.9134 47.8082C46.0827 48.639 45.4478 49.6446 45.0551 50.7519H10.0554C9.66226 49.6437 9.02666 48.6373 8.19498 47.806C7.3633 46.9748 6.35652 46.3398 5.24811 45.9472Z" fill="#333333"/>
</svg>
