<svg width="54" height="54" viewBox="0 0 54 54" fill="none" xmlns="http://www.w3.org/2000/svg">
<path d="M40.5 33.75V37.125H44.8639L38.8125 43.1764L34.9447 39.3069C34.6288 38.9909 34.2003 38.813 33.7534 38.8125H33.75C33.5287 38.8125 33.3095 38.8562 33.105 38.941C32.9006 39.0259 32.7149 39.1502 32.5586 39.3069L23.625 48.2389L26.0111 50.625L33.7517 42.8861L37.6194 46.7556C37.9359 47.0719 38.365 47.2496 38.8125 47.2496C39.26 47.2496 39.6891 47.0719 40.0056 46.7556L47.25 39.5111V43.875H50.625V33.75H40.5ZM6.75 50.625H3.375V42.1875C3.375 35.6738 8.67375 30.375 15.1875 30.375H25.3125C28.6689 30.375 31.8769 31.8094 34.1162 34.3119L31.6018 36.5631C30.8099 35.6787 29.8405 34.9712 28.7568 34.4865C27.6732 34.0018 26.4996 33.7509 25.3125 33.75H15.1875C10.5351 33.75 6.75 37.5351 6.75 42.1875V50.625ZM20.25 27C23.3829 27 26.3874 25.7555 28.6027 23.5402C30.818 21.3249 32.0625 18.3204 32.0625 15.1875C32.0625 12.0546 30.818 9.05007 28.6027 6.8348C26.3874 4.61953 23.3829 3.375 20.25 3.375C17.1171 3.375 14.1126 4.61953 11.8973 6.8348C9.68203 9.05007 8.4375 12.0546 8.4375 15.1875C8.4375 18.3204 9.68203 21.3249 11.8973 23.5402C14.1126 25.7555 17.1171 27 20.25 27ZM20.25 6.75C22.4878 6.75 24.6339 7.63895 26.2162 9.22129C27.7986 10.8036 28.6875 12.9497 28.6875 15.1875C28.6875 17.4253 27.7986 19.5714 26.2162 21.1537C24.6339 22.7361 22.4878 23.625 20.25 23.625C18.0122 23.625 15.8661 22.7361 14.2838 21.1537C12.7014 19.5714 11.8125 17.4253 11.8125 15.1875C11.8125 12.9497 12.7014 10.8036 14.2838 9.22129C15.8661 7.63895 18.0122 6.75 20.25 6.75Z" fill="black"/>
</svg>
