<svg width="56" height="56" viewBox="0 0 56 56" fill="none" xmlns="http://www.w3.org/2000/svg">
<path d="M12.0333 49.4945V29.7967H18.2906C18.5654 29.7967 18.8492 29.824 19.142 29.8786C19.4348 29.9331 19.7186 30.0092 19.9933 30.1066L38.1035 36.5683C38.9999 36.886 39.739 37.4084 40.3206 38.1354C40.9002 38.8625 41.19 39.6802 41.19 40.5885C41.19 41.1246 41.0095 41.5592 40.6485 41.8926C40.2875 42.2239 39.8433 42.3896 39.3158 42.3896H35.6998C34.677 42.3896 33.6792 42.3311 32.7065 42.2142C31.7318 42.0972 30.7782 41.877 29.8456 41.5534L24.4517 39.6704L23.5913 41.8458L29.4966 43.8194C30.4453 44.1312 31.425 44.3456 32.4358 44.4626C33.4466 44.5815 34.4704 44.6409 35.5073 44.6409H51.0242C52.398 44.6409 53.5713 45.0795 54.544 45.9567C55.5147 46.8338 56 47.9322 56 49.2518L34.9598 56L12.0333 49.4945ZM0 53.6376V29.7967H9.02498V53.6376H0ZM35.2305 16.9202H37.6612V14.5606H35.2305V16.9202ZM29.2139 16.9202H31.6446V14.5606H29.2139V16.9202ZM35.2305 22.7678H37.6612V20.4083H35.2305V22.7678ZM29.2139 22.7678H31.6446V20.4083H29.2139V22.7678ZM43.4041 35.4192C42.9348 34.2614 42.1828 33.2234 41.1479 32.3053C40.115 31.3873 38.7422 30.6241 37.0295 30.016L16.8918 22.8234H13.8834V13.549L33.4375 0L52.9917 13.5461V35.4192H43.4041Z" fill="#333333"/>
</svg>
