<svg width="142" height="137" viewBox="0 0 142 137" fill="none" xmlns="http://www.w3.org/2000/svg">
<g clip-path="url(#clip0_150_271)">
<path d="M81.1398 8.91377L82.1816 8.97714L82.0172 7.77401C83.1891 8.98116 86.6677 9.27599 88.3186 9.81871C90.2826 10.4788 92.2615 11.1646 94.2553 11.8761C96.6738 12.775 102.705 13.9945 103.686 16.7915C104.807 19.9671 100.328 23.2025 98.5544 25.176C96.8793 27.0454 95.2012 28.9139 93.5199 30.7816L90.7797 33.8358L89.8609 34.849C89.109 36.2884 88.6776 36.2129 88.4965 34.6791L86.3804 34.1121L86.9275 34.0179C86.3942 34.5474 85.8634 35.0675 85.3361 35.5936L85.8459 36.6685C85.5315 36.4792 85.2792 36.2023 85.1199 35.8717C84.9606 35.5411 84.9013 35.1711 84.9492 34.8073C84.9972 34.4435 85.1503 34.1015 85.3898 33.8235C85.6293 33.5454 85.9447 33.3433 86.2974 33.2419C86.8065 33.071 87.355 33.0557 87.8728 33.198C88.3906 33.3403 88.8542 33.6338 89.2044 34.0409C89.4853 34.3184 89.6877 34.6653 89.7909 35.0464C89.8942 35.4275 89.8946 35.8292 89.7922 36.2105C89.7351 36.3859 89.6875 36.5638 89.6339 36.7451C89.5333 37.1258 89.3327 37.4727 89.0529 37.7498C88.7731 38.0269 88.4242 38.224 88.0425 38.3208C85.154 38.8013 83.2616 36.3323 84.8672 33.7669C86.267 31.5578 88.6424 29.6403 90.4055 27.7042L96.4084 21.1438C97.4122 20.2102 98.3384 19.1964 99.1776 18.1124C99.613 17.3861 99.7944 17.4397 99.7309 18.2757C98.9856 17.8987 98.2403 17.5217 97.495 17.1447C95.2796 16.0494 92.9818 14.962 90.7005 13.9443C88.1321 12.7995 85.5283 11.7305 82.9085 10.7023C81.6977 10.2775 80.6782 10.0746 80.3551 8.73362C80.3028 8.52255 80.3197 8.30025 80.4033 8.0995C80.4869 7.89876 80.6328 7.73019 80.8195 7.61866C81.0238 7.47988 81.2648 7.40488 81.5118 7.40318C81.7588 7.40147 82.0007 7.47313 82.207 7.60908C82.3662 7.70224 82.4908 7.8447 82.562 8.01493C82.6332 8.18517 82.647 8.37394 82.6014 8.55273L82.5631 8.73314C82.5209 8.87915 82.437 9.00968 82.3218 9.10876C82.2065 9.20783 82.0649 9.27114 81.9142 9.29094C81.7635 9.31074 81.6103 9.28616 81.4734 9.22023C81.3365 9.15429 81.2217 9.04985 81.1432 8.9197L81.1398 8.91377Z" fill="black"/>
<path d="M102.071 18.5867C94.5262 20.4038 87.5548 24.0777 81.7909 29.2746C80.2191 30.6648 77.8556 28.3807 79.4408 26.9589C85.6283 21.3958 93.2992 17.7507 101.52 16.4671C102.895 16.2433 103.478 18.2812 102.071 18.5867Z" fill="black"/>
<path d="M73.5026 35.057C71.0295 37.5367 68.732 40.1855 66.6267 42.9842C64.9087 45.3137 63.584 48.1601 61.463 50.1207C60.5172 50.9913 58.7086 50.1755 59.1633 48.797C60.0842 45.9779 62.435 43.4968 64.378 41.2828C66.7691 38.5619 69.3499 36.0139 72.1012 33.6579C73.0269 32.8623 74.352 34.1155 73.4752 35.0096L73.5026 35.057Z" fill="black"/>
<path d="M55.7769 56.7911C51.4602 62.9866 48.0998 69.796 45.8083 76.9909C45.1791 78.8897 42.1881 78.1234 42.7746 76.1781C45.1353 68.6132 49.0922 61.6432 54.3779 55.7389C55.0335 54.9963 56.3573 55.9732 55.7769 56.7911Z" fill="black"/>
<path d="M43.5149 87.2349C43.8286 89.6973 43.5983 92.2047 43.5625 94.6789C43.5387 96.5843 42.8894 100.45 44.2858 101.867C44.4522 102.038 44.578 102.243 44.6535 102.469C44.7291 102.695 44.7526 102.935 44.7221 103.171C44.6917 103.407 44.6081 103.634 44.4778 103.833C44.3474 104.032 44.1736 104.199 43.9694 104.322L43.6429 104.51C43.288 104.706 42.8795 104.784 42.4774 104.731C42.0752 104.679 41.7005 104.499 41.4081 104.217C39.4422 102.622 40.2339 99.2363 40.441 97.0589C40.7106 93.8244 40.8978 90.2418 42.1035 87.2029C42.3355 86.6178 43.427 86.3834 43.5147 87.1796L43.5149 87.2349Z" fill="black"/>
<path d="M43.9527 115.507C45.0059 118.524 46.0733 121.469 47.105 124.435C47.9317 126.799 48.4858 130.761 50.1194 132.549C50.3021 132.735 50.4403 132.96 50.5237 133.207C50.6071 133.454 50.6335 133.716 50.6009 133.975C50.5682 134.234 50.4774 134.482 50.3353 134.7C50.1932 134.919 50.0034 135.103 49.7802 135.238L49.4122 135.45C49.0317 135.672 48.59 135.766 48.152 135.719C47.714 135.671 47.303 135.484 46.9795 135.185C44.9977 133.479 44.8218 129.679 44.2143 127.283C43.2846 123.562 42.3652 119.84 41.4559 116.117C41.061 114.501 43.3711 113.951 43.9356 115.477L43.9527 115.507Z" fill="black"/>
</g>
<defs>
<clipPath id="clip0_150_271">
<rect width="95.0633" height="108.56" fill="white" transform="matrix(0.5 0.866025 0.866025 -0.5 0 54.2798)"/>
</clipPath>
</defs>
</svg>
